<svg width="83" height="46" viewBox="0 0 83 46" fill="none" xmlns="http://www.w3.org/2000/svg">
<mask id="mask0_530_12377" style="mask-type:alpha" maskUnits="userSpaceOnUse" x="0" y="0" width="83" height="46">
<rect width="83" height="46" fill="#C4C4C4"/>
</mask>
<g mask="url(#mask0_530_12377)">
<g clip-path="url(#clip0_530_12377)">
<path fill-rule="evenodd" clip-rule="evenodd" d="M32.1108 14.726C31.2325 12.8055 29.8244 12.1499 27.4766 11.2719C20.2137 8.55605 14.3115 11.4177 9.84654 16.7048C3.32719 24.4252 -0.0740681 37.3853 -0.162384 45.0257C-0.166985 45.3875 0.123478 45.6834 0.484015 45.687C0.845875 45.6916 1.14296 45.4021 1.14756 45.0402C1.23279 37.6246 4.52076 25.0421 10.8474 17.5489C14.9472 12.6943 20.3477 10.004 27.0182 12.4994C29.004 13.2406 30.2937 14.5341 31.0405 16.1559C29.9882 16.6603 28.9639 17.1877 27.9701 17.7379C25.2271 19.2574 18.9303 24.4634 16.0055 29.568C13.9083 33.2302 13.5441 36.8356 16.8794 39.1958C18.7336 40.5072 20.896 40.359 23.0487 39.1593C26.0094 37.5117 28.9733 33.8109 30.9149 29.5926C32.532 26.0808 33.4413 22.2189 33.102 18.9166C33.0259 18.191 32.8934 17.4911 32.6951 16.8268C47.4231 10.1092 66.931 8.1208 82.1478 12.5135C82.4949 12.6123 82.8581 12.4137 82.9579 12.0653C83.059 11.7179 82.8581 11.3549 82.512 11.2548C67.0466 6.79155 47.1057 7.91925 32.1108 14.726ZM31.4898 17.3921C30.5018 17.8682 29.5394 18.3655 28.6047 18.8836C25.9767 20.3406 19.9447 25.3279 17.1425 30.2188C15.4225 33.2201 14.9023 36.1928 17.6358 38.1273C19.072 39.1424 20.7442 38.9431 22.4121 38.0162C24.2459 36.9946 26.0632 35.1125 27.6118 32.8146C29.9629 29.3259 31.6895 24.8765 31.8505 20.9333C31.9022 19.6841 31.7936 18.4862 31.4898 17.3921Z" fill="white"/>
<path fill-rule="evenodd" clip-rule="evenodd" d="M59.9333 22.6585C65.6027 17.2842 74.5448 13.7362 82.2896 12.4414C82.6457 12.3819 82.8863 12.0439 82.8268 11.6877C82.7673 11.3316 82.4303 11.0897 82.0741 11.1492C74.0872 12.4835 64.8779 16.1679 59.0328 21.7079C58.771 21.9557 58.7599 22.3705 59.009 22.6333C59.2568 22.8951 59.6715 22.9062 59.9333 22.6585Z" fill="white"/>
<path fill-rule="evenodd" clip-rule="evenodd" d="M82.0893 10.9879C75.6352 10.186 68.4323 5.35212 64.3557 0.259748C64.1297 -0.0229047 63.7169 -0.0697508 63.4356 0.157223C63.1529 0.383206 63.1071 0.794639 63.3331 1.07729C67.6039 6.41203 75.1662 11.4468 81.9279 12.2871C82.2862 12.3324 82.6142 12.0763 82.6594 11.718C82.7033 11.3588 82.4485 11.0319 82.0893 10.9879Z" fill="white"/>
</g>
</g>
<defs>
<clipPath id="clip0_530_12377">
<rect width="77.0064" height="77.0064" fill="white" transform="translate(30.1436 -28) rotate(36.8135)"/>
</clipPath>
</defs>
</svg>
